<?xml version="1.0" standalone="no"?>
<!DOCTYPE svg PUBLIC "-//W3C//DTD SVG 20010904//EN"
 "http://www.w3.org/TR/2001/REC-SVG-20010904/DTD/svg10.dtd">
<svg version="1.0" xmlns="http://www.w3.org/2000/svg"
 width="700.000000pt" height="700.000000pt" viewBox="0 0 700.000000 700.000000"
 preserveAspectRatio="xMidYMid meet">
<metadata>
Created by potrace 1.11, written by Peter Selinger 2001-2013
</metadata>
<g transform="translate(0.000000,700.000000) scale(0.100000,-0.100000)"
fill="#000000" stroke="none">
<path d="M3278 6995 c-1 -1 -37 -5 -78 -9 -99 -8 -235 -25 -285 -36 -22 -5
-59 -11 -82 -15 -75 -11 -280 -64 -410 -106 -1032 -336 -1849 -1125 -2211
-2136 -60 -167 -73 -209 -106 -338 -23 -93 -55 -250 -61 -302 -2 -13 -6 -42
-10 -65 -8 -46 -9 -56 -22 -188 -15 -158 -8 -602 11 -705 2 -11 7 -47 11 -80
4 -32 9 -68 11 -80 2 -11 6 -33 8 -50 21 -146 116 -479 193 -675 351 -887
1056 -1596 1947 -1956 91 -37 323 -116 376 -129 8 -2 62 -15 120 -29 58 -13
132 -29 165 -35 33 -6 70 -13 82 -15 11 -3 43 -7 70 -11 26 -4 59 -9 73 -11
172 -27 647 -25 854 3 38 5 263 44 331 58 124 24 369 101 532 166 975 388
1727 1199 2042 2204 33 107 72 252 86 325 58 299 73 459 69 765 -2 138 -5 264
-8 280 -2 17 -7 53 -10 80 -8 68 -16 125 -21 155 -3 14 -8 41 -11 60 -9 57
-54 263 -64 290 -5 14 -19 59 -31 100 -237 812 -799 1538 -1536 1983 -421 255
-952 438 -1403 483 -30 3 -71 8 -90 10 -38 6 -536 14 -542 9z m517 -348 c11
-3 47 -8 80 -11 167 -18 446 -80 615 -136 198 -66 461 -186 627 -286 86 -52
225 -144 233 -154 3 -3 21 -17 40 -30 123 -83 366 -310 499 -465 298 -346 514
-743 645 -1185 28 -94 71 -280 81 -350 3 -25 9 -58 11 -75 37 -205 39 -668 4
-880 -5 -33 -12 -78 -15 -100 -26 -170 -125 -517 -197 -685 -323 -755 -887
-1336 -1619 -1667 -170 -77 -409 -161 -509 -179 -14 -3 -38 -9 -55 -14 -16 -5
-41 -11 -55 -14 -146 -28 -176 -33 -239 -42 -25 -3 -57 -8 -71 -10 -118 -19
-485 -25 -638 -11 -141 13 -189 20 -307 43 -44 8 -91 17 -105 20 -62 12 -254
66 -347 98 -226 79 -385 155 -651 311 -221 129 -561 427 -749 655 -276 334
-487 732 -604 1136 -17 60 -33 120 -36 133 -2 14 -12 61 -23 106 -27 116 -40
205 -59 400 -8 89 -7 458 3 520 3 22 8 65 11 96 7 84 42 272 70 388 98 396
283 788 528 1121 99 135 162 206 317 360 344 344 734 587 1208 752 88 30 357
102 422 112 19 3 69 10 110 16 41 6 86 13 100 16 14 2 66 7 115 10 50 4 92 8
94 10 5 5 443 -4 466 -9z"/>
<path d="M3587 6434 c-1 -2 -31 -4 -66 -5 l-63 -2 6 -101 c4 -56 9 -126 12
-156 2 -30 6 -80 9 -110 l4 -55 -193 199 -193 198 -39 -6 c-21 -3 -60 -7 -86
-8 -42 -1 -51 -7 -50 -28 1 -22 14 -205 17 -245 2 -27 7 -90 10 -140 3 -49 8
-110 10 -135 2 -25 7 -88 11 -140 3 -52 8 -98 10 -101 2 -4 18 -5 36 -3 49 6
119 12 151 13 l29 1 -6 88 c-4 48 -9 125 -12 172 -3 47 -7 100 -9 118 -1 17 0
32 4 32 5 0 66 -62 293 -302 l76 -81 87 7 c87 6 109 11 101 24 -2 4 -7 54 -11
112 -4 58 -8 121 -10 140 -2 19 -6 76 -10 125 -3 50 -7 113 -10 140 -2 28 -6
93 -10 145 -4 52 -9 98 -12 102 -4 7 -79 8 -86 2z"/>
<path d="M4250 6298 c-194 -25 -330 -163 -355 -359 -31 -245 195 -469 474
-469 221 0 402 180 403 402 1 131 -58 245 -169 330 -101 76 -233 112 -353 96z
m175 -207 c49 -22 99 -77 115 -127 30 -90 -14 -209 -99 -269 -37 -26 -51 -30
-109 -30 -96 1 -150 33 -193 115 -54 104 5 268 114 315 45 20 124 18 172 -4z"/>
<path d="M2052 5995 c-29 -8 -67 -22 -85 -31 -47 -24 -357 -238 -357 -246 0
-4 82 -126 183 -271 100 -144 200 -288 221 -320 22 -32 42 -56 45 -55 3 2 45
29 93 62 l87 58 -17 27 c-9 14 -33 49 -54 78 -21 29 -38 58 -38 65 0 7 28 31
63 53 75 48 160 132 190 188 32 61 31 184 -1 247 -65 124 -197 182 -330 145z
m84 -206 c28 -14 55 -62 56 -99 1 -41 -23 -73 -100 -129 l-67 -50 -25 32 c-14
17 -29 39 -35 48 -5 9 -25 38 -43 64 -19 25 -32 48 -30 49 26 21 133 89 150
95 26 10 63 6 94 -10z"/>
<path d="M5049 5918 c-75 -90 -73 -81 -30 -114 67 -51 141 -118 141 -125 0 -7
-41 -57 -164 -199 -12 -14 -67 -80 -123 -147 l-102 -121 57 -48 c31 -27 68
-59 82 -71 14 -13 27 -23 30 -23 3 0 93 104 199 230 107 127 197 230 200 230
4 0 45 -31 91 -70 46 -38 89 -70 95 -69 5 0 33 29 62 63 47 58 50 64 34 77
-75 62 -197 165 -201 169 -3 3 -45 39 -95 80 -49 41 -92 77 -95 80 -17 17
-129 110 -133 110 -3 0 -24 -24 -48 -52z"/>
<path d="M3340 5427 c-3 -3 -36 -8 -75 -12 -38 -4 -72 -8 -75 -10 -3 -2 -23
-6 -45 -9 -22 -4 -58 -11 -80 -17 -22 -6 -49 -13 -59 -15 -125 -24 -389 -145
-546 -249 -147 -98 -139 -90 -103 -125 32 -32 63 -87 63 -114 0 -21 30 -35 55
-26 20 7 21 10 24 54 0 13 18 49 38 80 l37 56 13 -45 c8 -27 29 -60 53 -84 45
-44 51 -78 25 -150 l-14 -41 47 -1 c97 -3 119 -19 65 -48 -13 -6 -23 -18 -23
-26 0 -7 -21 -31 -46 -51 -45 -37 -46 -37 -96 -27 l-50 10 5 -41 c4 -23 20
-86 37 -141 18 -55 43 -140 56 -189 30 -108 71 -198 116 -250 l34 -39 51 44
c56 48 64 62 87 162 8 38 28 95 44 127 l28 60 -32 15 c-18 8 -36 15 -41 15 -6
0 -18 9 -28 20 -15 17 -16 20 -3 20 9 0 21 6 27 14 9 11 4 20 -25 44 -21 17
-38 40 -39 51 -1 12 -11 31 -22 43 -12 13 -25 36 -28 51 l-7 28 38 -22 c22
-11 60 -36 87 -55 53 -38 58 -32 33 41 -15 42 -12 65 8 65 7 0 23 11 36 25 28
30 46 32 55 5 4 -11 18 -33 31 -50 21 -25 24 -36 19 -77 -3 -26 -8 -56 -11
-66 -5 -17 -1 -18 42 -11 l47 7 -6 -48 c-3 -35 -11 -53 -28 -66 l-23 -17 24
-20 c29 -24 21 -39 -25 -45 -35 -5 -80 15 -89 39 -4 10 -10 13 -15 8 -20 -22
-80 -183 -84 -225 l-4 -45 66 14 c36 8 67 16 69 17 2 2 -1 13 -8 24 -6 12 -7
21 -2 21 5 0 10 12 10 26 0 29 25 60 41 50 6 -4 11 -15 11 -23 0 -13 7 -10 29
11 23 22 40 28 85 31 31 2 54 0 51 -5 -8 -13 54 -60 78 -60 12 0 38 4 57 10
29 8 43 6 85 -14 78 -36 84 -37 95 -15 16 28 11 36 -40 61 -35 19 -47 31 -58
65 -8 25 -30 57 -57 82 -45 41 -47 51 -9 51 49 0 53 8 30 52 -15 30 -18 42 -9
45 10 4 9 11 -2 33 -8 16 -15 36 -15 45 0 14 6 12 30 -8 16 -14 46 -31 67 -37
55 -18 101 -48 108 -71 4 -12 14 -19 23 -17 35 8 93 -109 91 -182 -2 -54 5
-70 31 -70 13 0 25 12 34 35 9 20 40 60 71 91 l55 55 1 -38 c1 -60 8 -95 28
-136 22 -45 14 -92 -25 -144 -13 -17 -24 -34 -24 -36 0 -2 27 -14 60 -26 55
-20 59 -24 49 -42 -5 -11 -21 -25 -35 -31 -13 -6 -24 -15 -24 -19 0 -5 -22
-19 -49 -32 -49 -23 -50 -23 -86 -6 -21 10 -43 23 -51 30 -12 9 -14 5 -15 -22
0 -19 -2 -45 -5 -57 -16 -85 -8 -211 15 -234 7 -8 405 214 467 259 25 19 28
27 30 84 0 35 5 91 9 124 13 97 12 107 -10 111 -11 2 -48 5 -82 6 -89 2 -95
10 -45 56 47 43 46 46 -20 77 -21 9 -38 21 -38 26 0 4 -12 21 -28 38 -25 27
-68 121 -56 121 2 0 21 -7 42 -16 20 -8 51 -14 67 -13 17 2 40 -3 53 -10 41
-22 43 -7 7 63 -41 82 -44 103 -12 108 21 3 22 6 20 111 -1 64 2 105 8 102 5
-4 9 -12 9 -19 0 -6 21 -32 46 -56 26 -25 53 -60 60 -78 8 -18 26 -37 39 -42
23 -9 25 -15 26 -72 1 -35 1 -66 0 -70 -3 -18 17 -5 72 47 32 30 63 55 68 55
9 0 13 -21 10 -47 -3 -18 38 -16 45 1 3 8 0 24 -6 37 -10 17 -10 31 0 63 25
84 24 84 54 32 15 -25 43 -57 62 -69 24 -15 38 -34 45 -62 22 -79 31 -95 53
-95 35 0 43 13 42 65 0 29 9 76 23 113 23 61 25 62 45 47 39 -29 47 -28 72 1
19 24 25 26 33 14 6 -8 13 -11 17 -7 16 16 -137 183 -269 294 -290 242 -612
385 -984 437 -90 13 -423 22 -433 13z"/>
<path d="M1370 5315 c-161 -34 -304 -178 -350 -353 -11 -43 -15 -148 -6 -187
45 -213 263 -358 474 -315 238 49 415 323 357 552 -56 220 -259 349 -475 303z
m125 -222 c73 -25 140 -95 155 -164 38 -171 -130 -310 -291 -241 -56 24 -114
80 -134 129 -45 106 14 240 121 278 52 19 91 18 149 -2z"/>
<path d="M5620 5192 c-174 -23 -328 -167 -359 -333 -34 -188 82 -411 254 -490
95 -43 103 -44 115 -15 10 27 22 94 24 140 1 20 -4 30 -15 31 -66 10 -141 77
-168 151 -37 99 -2 196 94 258 37 24 120 44 159 39 75 -10 150 -78 177 -160 7
-22 9 -61 6 -98 l-6 -61 77 -24 c42 -12 82 -25 89 -27 16 -6 33 60 33 133 0
256 -243 488 -480 456z"/>
<path d="M2083 5029 c3 -11 1 -19 -5 -19 -6 0 2 -16 17 -36 15 -19 25 -37 24
-38 -2 -2 -14 -9 -26 -15 -30 -15 -29 -22 7 -46 16 -11 30 -23 30 -26 0 -3
-15 -22 -32 -41 -44 -47 -112 -129 -116 -139 -8 -20 48 -7 94 23 47 30 53 32
137 30 l87 -3 0 30 c0 35 -12 45 -54 43 -20 -1 -42 8 -60 23 -15 13 -33 26
-39 28 -12 4 52 72 124 132 19 17 39 37 44 45 8 13 7 13 -8 1 -16 -12 -20 -11
-38 8 -19 20 -30 22 -106 20 -77 -2 -84 -3 -80 -20z"/>
<path d="M1930 4598 c-120 -164 -243 -439 -289 -648 -40 -180 -49 -279 -46
-475 3 -189 5 -214 25 -310 6 -27 12 -59 14 -70 57 -289 232 -636 428 -851
l38 -41 -52 -35 c-29 -19 -65 -43 -80 -52 -16 -9 -28 -24 -28 -32 0 -25 41
-10 122 43 l69 46 33 -35 c74 -78 225 -197 341 -268 251 -154 509 -242 819
-278 78 -10 334 -8 416 2 111 14 288 55 395 91 108 36 327 138 373 173 l24 18
-42 66 c-29 46 -50 70 -71 77 -36 12 -59 61 -68 144 -2 14 -23 7 -53 -18 -37
-31 -68 -34 -63 -5 5 28 -3 25 -60 -20 -27 -22 -56 -40 -62 -40 -7 0 -13 -4
-13 -9 0 -10 23 -19 67 -27 56 -10 63 -15 63 -45 0 -16 7 -46 15 -66 18 -43 8
-55 -35 -43 -15 4 -45 6 -66 3 -35 -4 -44 0 -81 36 -46 44 -53 40 -53 -29 0
-21 -4 -42 -10 -45 -5 -3 -30 13 -55 36 -36 33 -45 48 -45 75 0 38 -6 41 -37
19 -26 -18 -34 -9 -27 29 6 37 31 74 55 81 10 4 19 11 19 17 0 12 -74 117
-118 167 l-30 35 -26 -52 c-30 -59 -31 -66 -12 -59 20 8 75 -29 86 -59 15 -37
12 -46 -10 -39 -27 9 -35 -15 -22 -67 l11 -41 -52 -47 c-49 -46 -52 -47 -60
-27 -5 12 -7 41 -6 64 2 24 -1 43 -6 44 -6 1 -21 -19 -35 -43 -44 -79 -52 -87
-95 -89 -22 -2 -44 -6 -50 -9 -5 -4 -25 -12 -44 -18 l-33 -12 7 38 c3 20 13
47 21 59 7 12 11 29 8 38 -8 20 19 50 74 82 43 25 52 50 16 45 -43 -6 -159 1
-228 14 -20 3 -36 2 -36 -2 0 -5 20 -43 45 -84 l45 -75 -28 -8 c-24 -8 -27
-13 -28 -55 -2 -91 -9 -172 -16 -172 -4 0 -9 9 -13 20 -3 11 -26 34 -51 52
-25 18 -50 43 -57 57 -9 19 -21 27 -45 29 -32 3 -33 5 -26 35 10 41 12 79 6
95 -9 24 -32 11 -47 -26 -9 -20 -30 -46 -48 -58 -17 -11 -44 -28 -58 -37 l-26
-17 5 52 c2 29 8 60 12 68 5 9 4 22 0 31 -10 17 6 55 39 90 31 33 26 39 -29
39 -27 0 -50 4 -50 9 0 21 124 131 147 131 9 0 13 6 10 14 -3 8 -13 50 -22 93
-26 130 -42 170 -73 181 -41 14 -182 15 -238 1 -95 -22 -192 -76 -257 -144
-72 -73 -324 -275 -344 -275 -7 0 -13 5 -13 10 0 16 118 132 153 150 32 17 90
68 231 201 50 48 116 109 146 135 98 86 150 147 182 212 27 54 32 77 34 145 3
99 -9 190 -39 294 l-22 78 -125 52 c-136 56 -161 63 -116 34 36 -24 59 -63 44
-72 -6 -4 -12 -20 -14 -36 -4 -33 -54 -163 -64 -163 -8 0 -30 45 -30 63 0 7
-7 20 -14 30 -11 14 -19 16 -33 9 -19 -11 -76 -87 -118 -157 l-23 -40 -9 35
c-12 44 -31 48 -69 15 -20 -18 -36 -24 -54 -20 -14 3 -46 -1 -72 -8 -55 -17
-78 -9 -49 17 11 10 23 31 26 46 5 24 53 102 74 120 3 3 26 27 50 52 38 40 42
49 31 63 -16 19 -51 19 -98 -1 -20 -9 -55 -17 -77 -19 -22 -2 -67 -7 -99 -11
-55 -6 -59 -5 -52 12 23 58 20 70 -22 82 -22 7 -46 12 -55 12 -10 0 -13 6 -10
19 3 13 -4 27 -23 43 -42 35 -76 70 -72 73 2 2 22 0 45 -4 35 -7 45 -5 60 11
9 10 43 26 75 35 49 14 58 20 58 39 0 19 4 22 28 18 15 -3 47 -12 72 -20 25
-9 55 -18 67 -20 12 -2 38 -14 57 -25 34 -20 76 -19 76 1 0 5 -17 41 -39 82
-21 40 -47 96 -57 125 -19 56 -13 54 -91 37 -26 -5 -27 -4 -12 13 15 16 89
167 89 180 0 2 -17 2 -37 -1 -21 -3 -68 -9 -104 -12 l-67 -7 5 26 c4 21 2 25
-14 21 -11 -3 -55 4 -98 15 -43 11 -82 18 -87 15 -4 -3 -8 -2 -8 3 0 7 28 30
112 91 17 12 46 22 63 22 25 0 34 5 38 21 6 22 18 22 115 -3 23 -6 45 -8 49
-5 7 8 -21 52 -59 92 -29 30 -46 71 -34 82 3 4 22 -1 41 -10 20 -9 46 -17 59
-17 12 0 26 -3 30 -7 4 -5 19 -8 33 -8 14 0 29 -7 34 -15 4 -8 16 -33 27 -55
10 -22 23 -40 28 -40 5 0 18 20 29 43 l20 42 34 -30 c24 -22 32 -37 28 -52 -3
-12 1 -34 8 -49 18 -34 13 -49 -25 -78 -33 -24 -39 -41 -15 -41 9 0 42 -16 73
-37 31 -20 75 -44 97 -54 40 -18 125 -26 125 -11 0 31 -115 440 -121 430 -4
-7 -11 -9 -15 -5 -4 4 -15 0 -25 -9 -16 -15 -113 -43 -146 -44 -9 0 -7 14 7
49 l19 49 -22 6 c-41 11 -112 5 -164 -13 -49 -16 -53 -17 -53 -1 0 9 6 22 13
29 21 21 -16 40 -63 31 -29 -5 -40 -4 -44 6 -3 8 -13 14 -22 14 -10 0 -25 7
-35 16 -16 15 -20 13 -49 -28z"/>
<path d="M5095 4540 c-5 -27 -3 -46 5 -55 11 -13 4 -23 -36 -63 -27 -26 -62
-57 -78 -68 -27 -19 -27 -21 -11 -38 12 -11 31 -16 59 -15 47 2 93 -7 144 -28
l35 -15 -44 -25 c-45 -25 -88 -69 -89 -90 0 -14 -54 -26 -117 -26 -24 0 -43
-3 -43 -7 0 -4 7 -27 15 -50 8 -23 15 -49 15 -56 0 -18 -30 -17 -54 1 -11 8
-27 15 -35 15 -28 0 -111 44 -112 60 -1 8 -2 30 -3 48 0 17 -2 32 -5 32 -9 0
-78 -56 -131 -106 -90 -84 -132 -118 -180 -143 -25 -13 -94 -56 -153 -95
l-108 -71 28 -23 c57 -46 185 -65 313 -47 74 10 80 13 71 38 -7 19 -8 38 -2
106 1 10 6 10 27 -4 30 -19 32 -18 48 30 7 20 22 42 33 48 69 40 85 48 91 43
3 -3 -4 -42 -14 -86 -19 -77 -19 -80 -2 -80 11 0 33 7 49 16 49 25 66 25 83
-2 9 -13 35 -33 57 -44 l40 -21 -43 -31 c-24 -17 -48 -38 -54 -47 -10 -13 -20
-14 -65 -4 -30 6 -56 9 -58 8 -2 -2 11 -28 28 -59 29 -49 30 -55 14 -60 -10
-2 -29 -3 -43 -2 -14 2 -31 4 -38 5 -7 0 -24 12 -37 25 l-25 25 -7 -30 c-8
-28 -9 -29 -30 -14 -29 20 -51 91 -35 107 21 21 13 28 -25 23 -48 -6 -181 -18
-210 -19 -31 0 -29 -10 10 -56 37 -45 43 -47 71 -21 17 15 28 18 56 12 32 -6
35 -10 36 -41 0 -27 7 -38 36 -57 30 -20 36 -31 41 -71 8 -59 14 -89 21 -101
15 -24 -40 6 -85 47 l-50 45 3 -80 3 -79 -41 -50 c-22 -27 -46 -58 -52 -69
-10 -19 -11 -19 -21 8 -6 16 -11 35 -11 43 0 19 -27 12 -93 -26 -53 -30 -52
-32 23 -70 24 -13 57 -36 71 -51 l27 -29 101 50 c112 55 135 61 103 27 -12
-13 -26 -47 -32 -77 -7 -37 -20 -64 -40 -85 -20 -20 -28 -37 -24 -51 6 -23
-13 -43 -74 -74 -23 -12 -44 -25 -47 -30 -6 -10 39 -29 83 -36 52 -7 93 -25
89 -38 -2 -6 -28 -24 -58 -41 l-55 -30 9 -42 c4 -24 12 -43 16 -43 21 0 101
62 121 95 23 37 35 37 42 0 3 -15 10 -19 33 -17 48 4 58 4 108 -4 26 -3 47
-11 47 -15 0 -5 -4 -9 -9 -9 -17 0 -76 -70 -81 -97 -4 -22 -17 -33 -63 -55
-31 -15 -57 -32 -57 -37 0 -42 42 -67 122 -75 97 -10 128 -29 108 -67 -15 -27
-5 -66 20 -79 16 -9 26 -2 67 41 115 123 243 314 319 474 80 171 149 408 171
585 10 83 10 383 0 475 -19 172 -90 415 -173 590 -47 101 -132 245 -144 245
-4 0 -11 -18 -15 -40z"/>
<path d="M775 4477 c-3 -7 -6 -23 -9 -37 -2 -14 -21 -101 -40 -195 -20 -93
-38 -179 -41 -190 -2 -11 -15 -74 -29 -139 -15 -66 -25 -120 -24 -121 10 -9
163 -34 169 -28 4 5 18 58 31 118 13 61 29 109 34 108 5 0 65 -13 134 -27 69
-15 134 -28 145 -30 11 -3 85 -18 164 -35 80 -17 145 -30 147 -28 1 1 9 40 18
87 10 47 20 95 22 107 6 22 -5 25 -161 58 -427 87 -434 89 -430 110 3 11 7 32
10 48 7 39 15 76 25 122 5 22 7 41 5 44 -3 2 -41 12 -86 22 -59 13 -81 14 -84
6z"/>
<path d="M4550 4450 c13 -24 6 -37 -42 -79 -39 -34 -41 -51 -6 -51 14 0 18 5
14 16 -7 17 4 17 79 -2 26 -7 27 -6 20 27 -11 51 -43 109 -61 109 -12 0 -13
-4 -4 -20z"/>
<path d="M6245 4339 c-27 -4 -67 -9 -87 -13 -61 -10 -97 -15 -203 -30 -185
-27 -380 -56 -408 -62 -32 -7 -31 3 -5 -157 l11 -68 41 6 c23 4 52 8 66 10 14
2 54 9 90 14 104 17 107 16 114 -26 3 -21 13 -86 22 -146 9 -59 15 -109 13
-111 -4 -4 -15 -6 -179 -31 -57 -8 -108 -19 -113 -24 -5 -5 -2 -52 8 -113 l17
-105 42 8 c22 4 64 10 91 13 28 4 57 9 65 11 8 2 38 6 65 10 28 3 122 17 210
30 88 14 179 28 203 31 24 3 51 7 60 9 9 2 23 4 30 4 10 1 12 13 8 49 -9 75
-25 164 -31 170 -4 4 -87 -6 -195 -24 -80 -14 -97 -14 -97 -2 0 7 -3 31 -7 53
-4 22 -9 56 -11 75 -3 19 -8 55 -13 80 -12 67 -9 83 13 86 11 1 38 5 60 9 22
3 57 9 78 12 21 3 46 6 55 8 9 2 30 4 46 4 l29 1 -7 53 c-3 28 -9 75 -12 102
-9 69 -11 72 -69 64z"/>
<path d="M4491 4230 c-61 -34 -77 -36 -105 -15 -28 21 -36 19 -36 -12 0 -16
-8 -75 -18 -133 -10 -58 -17 -111 -16 -117 1 -7 2 -26 3 -43 1 -23 5 -28 19
-23 24 8 206 128 230 150 10 10 46 44 79 75 57 54 59 56 31 53 -37 -5 -58 3
-58 21 0 7 -12 21 -27 31 -16 10 -32 23 -38 30 -8 10 -22 6 -64 -17z"/>
<path d="M3284 4174 c-4 -10 -18 -32 -31 -48 -26 -31 -18 -48 17 -39 10 3 21
0 24 -6 4 -6 17 -11 28 -11 20 0 20 1 5 18 -9 9 -18 34 -20 55 -4 44 -14 57
-23 31z"/>
<path d="M2416 4082 c7 -33 -12 -112 -26 -112 -5 0 -22 19 -36 43 -15 23 -28
44 -30 46 -2 2 -22 -15 -44 -38 -22 -23 -45 -39 -51 -36 -5 4 -16 1 -25 -5
-12 -10 -12 -16 -2 -28 26 -31 102 -72 134 -72 44 0 87 -38 119 -105 31 -62
38 -62 90 1 20 24 40 44 45 44 9 0 22 -48 25 -95 1 -16 4 -32 5 -35 2 -3 3
-28 4 -57 1 -51 0 -53 -34 -67 -19 -8 -42 -17 -50 -19 -9 -3 14 -18 52 -36 98
-45 197 -81 202 -73 2 4 2 75 0 157 -3 162 -20 274 -54 353 -34 78 -53 91
-145 97 -65 5 -87 11 -124 35 -55 37 -62 37 -55 2z"/>
<path d="M2995 4046 c-22 -7 -42 -13 -45 -13 -3 0 -38 -34 -78 -76 -68 -69
-73 -78 -68 -109 6 -38 13 -152 21 -327 5 -118 17 -201 33 -225 4 -7 46 27
106 85 87 86 95 97 72 97 -31 0 -56 18 -56 41 0 9 -9 22 -20 29 -18 11 -75
110 -68 117 2 2 21 0 43 -5 76 -18 77 -17 56 38 -14 36 -16 53 -9 67 6 10 12
33 13 50 2 36 55 132 55 100 0 -22 35 -84 56 -100 8 -5 18 -23 22 -39 12 -45
28 -42 46 10 21 63 20 77 -8 119 -14 20 -26 41 -29 48 -3 8 -11 3 -24 -12
l-20 -24 -11 33 c-15 43 -15 83 0 98 16 16 -33 15 -87 -2z"/>
<path d="M3366 4023 c16 -66 17 -66 47 -43 34 27 34 43 2 58 -43 20 -56 16
-49 -15z"/>
<path d="M3230 3960 c0 -18 32 -90 40 -90 4 0 14 7 21 16 11 14 11 18 -2 28
-9 6 -21 21 -28 34 -12 22 -31 30 -31 12z"/>
<path d="M3428 3945 c-4 -4 -5 -32 -2 -61 5 -44 2 -60 -16 -88 -20 -33 -20
-37 -5 -60 17 -25 16 -25 -33 -56 -60 -36 -70 -55 -33 -58 48 -3 176 -36 183
-46 4 -6 17 13 29 41 24 58 49 78 45 35 -2 -14 10 -63 25 -108 16 -45 27 -95
25 -112 -3 -25 1 -31 21 -35 19 -3 31 6 68 55 50 66 53 84 31 185 -7 34 -12
87 -11 117 l2 54 -46 -4 c-25 -2 -68 -1 -96 4 l-50 8 31 31 c47 47 48 60 11
80 -33 17 -167 31 -179 18z"/>
<path d="M4051 3680 c-34 -22 -92 -56 -129 -74 -37 -19 -79 -47 -94 -63 -35
-38 -93 -146 -80 -151 22 -7 128 -80 162 -111 19 -17 52 -46 73 -63 l39 -31
-3 29 c-5 62 0 71 70 123 80 59 104 65 96 24 -17 -77 -18 -73 15 -73 33 0 44
16 52 80 5 35 23 74 54 117 14 20 14 22 -5 33 -12 6 -21 17 -21 24 0 15 54 39
64 29 3 -4 6 0 6 9 0 44 -144 138 -212 138 -14 0 -53 -18 -87 -40z"/>
<path d="M3460 3530 c0 -6 -12 -15 -26 -20 -22 -9 -24 -13 -14 -25 15 -18 50
-20 50 -2 0 6 3 22 6 35 4 13 2 22 -5 22 -6 0 -11 -5 -11 -10z"/>
<path d="M3025 3416 c-44 -39 -93 -86 -110 -105 l-30 -35 0 -177 0 -177 45 33
c25 17 73 50 107 71 l63 40 -25 36 c-32 48 -31 55 5 50 36 -5 38 7 11 69 -15
33 -17 47 -8 57 6 8 10 42 9 80 l-3 66 23 -20 c69 -60 156 -153 167 -181 16
-39 19 -39 65 -12 29 17 34 24 27 42 -7 19 -7 58 2 162 4 37 -12 73 -23 55 -6
-9 -15 -8 -40 5 -45 23 -55 7 -24 -39 41 -60 19 -76 -61 -46 -15 6 -39 10 -54
10 -33 0 -51 18 -60 59 l-6 28 -80 -71z"/>
<path d="M4359 3382 c-2 -5 -28 -25 -58 -44 l-53 -36 43 -23 c48 -24 52 -24
57 6 1 11 7 37 13 59 9 33 7 63 -2 38z"/>
<path d="M3700 3361 c-20 -6 -29 -21 -50 -83 -15 -44 -38 -89 -53 -104 -29
-29 -36 -78 -13 -87 8 -3 32 6 52 19 47 32 67 40 176 68 l86 22 -42 -50 c-67
-79 -117 -158 -111 -174 9 -25 -47 -69 -108 -83 -69 -15 -71 -29 -10 -74 23
-16 42 -33 42 -36 2 -12 -108 -37 -141 -33 -18 3 -46 5 -62 5 -41 -1 -52 12
-67 72 l-12 52 -21 -30 c-12 -17 -59 -69 -105 -117 -47 -49 -83 -89 -80 -91 4
-4 237 -64 279 -72 122 -25 260 -26 327 -4 21 6 64 30 96 51 32 22 80 44 107
51 55 13 66 36 30 65 -11 10 -26 34 -35 54 -15 37 -15 38 10 44 20 5 24 11 22
33 -2 15 -7 33 -11 40 -19 29 -23 78 -10 96 30 41 1 61 -40 30 -28 -21 -49
-19 -41 4 3 11 8 30 10 43 3 12 16 45 30 73 22 45 23 51 9 62 -9 7 -40 34 -68
61 -85 80 -141 107 -196 93z"/>
<path d="M3345 3172 l-30 -17 29 -3 c26 -3 45 10 46 31 0 11 -12 8 -45 -11z"/>
<path d="M3055 2994 c-33 -19 -80 -52 -105 -72 -42 -34 -310 -300 -310 -307 0
-2 15 1 33 7 17 5 124 11 237 12 170 1 210 5 236 18 30 16 134 116 134 127 -1
18 -21 33 -50 36 -37 5 -157 79 -143 88 5 4 25 9 43 12 41 7 70 22 70 36 0 13
-64 79 -77 79 -5 0 -36 -16 -68 -36z"/>
<path d="M5546 2773 c-3 -4 -17 -30 -30 -58 -14 -28 -61 -127 -105 -219 -45
-93 -81 -172 -81 -175 0 -4 46 -29 103 -56 56 -27 194 -93 306 -147 112 -54
205 -97 207 -96 1 2 20 41 42 88 22 47 72 152 111 234 40 82 70 150 69 151 -8
7 -98 45 -108 45 -5 0 -21 -24 -34 -52 -51 -114 -128 -268 -135 -268 -16 0
-131 62 -131 70 0 5 14 38 31 72 17 35 46 95 64 135 l33 72 -55 26 c-31 14
-56 25 -57 23 -24 -44 -126 -261 -126 -268 0 -6 -2 -10 -4 -10 -9 0 -136 60
-136 64 0 2 34 75 75 162 42 86 74 157 73 158 -2 1 -26 13 -54 28 -29 15 -55
24 -58 21z"/>
<path d="M4090 2670 c-25 -10 -84 -30 -132 -45 -93 -29 -146 -67 -118 -86 23
-14 79 -27 145 -32 67 -6 138 -27 267 -81 48 -20 89 -36 91 -36 3 0 1 19 -5
42 -8 36 -6 44 8 55 10 7 15 16 11 19 -3 4 3 24 14 46 11 22 18 43 15 46 -3 3
-6 2 -6 -2 0 -5 -10 -2 -22 6 -60 39 -83 26 -54 -31 29 -55 -21 -65 -93 -18
-20 13 -44 27 -55 30 -16 6 -18 14 -13 57 3 28 3 50 -1 49 -4 0 -27 -9 -52
-19z"/>
<path d="M3038 2602 c-16 -2 -28 -5 -28 -6 0 -2 7 -22 15 -45 8 -22 19 -69 25
-104 14 -80 31 -137 40 -137 5 0 11 11 14 24 6 23 53 63 63 52 3 -2 17 0 31 5
36 14 142 27 142 18 0 -5 -14 -24 -31 -44 -33 -38 -33 -64 1 -66 37 -3 70 -17
70 -31 0 -17 54 -88 68 -88 6 0 12 4 12 10 0 15 59 42 97 44 42 3 44 6 34 44
-5 18 -6 32 -2 32 28 0 76 -27 91 -52 19 -32 20 -31 51 31 l16 34 -66 95 c-43
61 -74 96 -86 97 -45 4 -116 18 -225 45 -159 39 -253 51 -332 42z"/>
<path d="M1522 2517 c-28 -18 -52 -35 -52 -39 0 -4 25 -46 55 -95 48 -76 54
-89 40 -98 -225 -141 -440 -288 -439 -300 2 -21 64 -115 77 -115 5 0 33 15 61
33 28 19 83 54 121 79 39 25 108 69 155 100 140 90 122 90 180 1 27 -43 52
-82 54 -88 3 -10 90 31 107 51 9 11 -8 41 -176 299 -18 28 -55 84 -82 127
l-49 76 -52 -31z"/>
<path d="M3668 2523 c-10 -2 -18 -8 -18 -11 0 -8 124 -179 215 -297 49 -65 61
-75 63 -57 2 12 8 22 13 22 5 0 18 9 28 19 11 11 29 24 40 31 19 10 21 8 21
-20 0 -26 3 -30 23 -28 12 2 27 6 32 10 22 13 73 19 80 9 3 -6 22 -11 41 -11
29 0 34 3 35 25 1 14 2 28 3 33 15 70 37 102 68 102 35 0 18 19 -45 50 -85 42
-263 90 -332 90 -17 0 -63 9 -103 20 -68 19 -125 23 -164 13z"/>
<path d="M4544 2144 c-4 -14 -4 -65 -1 -112 4 -48 7 -102 7 -120 l0 -33 33 24
c140 102 136 98 118 119 -21 25 -75 80 -92 94 -8 6 -21 21 -29 33 -19 28 -28
27 -36 -5z"/>
<path d="M5285 2160 c-80 -18 -138 -65 -265 -210 -41 -47 -83 -93 -93 -104
-10 -10 -15 -22 -10 -25 10 -10 198 -177 238 -213 17 -14 41 -36 55 -48 14
-12 57 -51 97 -86 39 -36 82 -73 95 -84 l25 -19 50 58 51 58 -69 63 c-38 34
-68 66 -67 71 2 4 23 28 47 54 41 44 46 46 85 41 22 -3 66 -8 96 -11 30 -3 62
-8 71 -11 11 -3 36 16 72 58 31 34 55 64 53 65 -3 4 -28 7 -125 19 -30 3 -62
8 -70 9 -9 2 -25 4 -36 4 -19 1 -21 7 -21 74 1 80 -12 113 -66 166 -56 57
-147 87 -213 71z m83 -170 c54 -33 70 -105 35 -159 -39 -61 -106 -130 -119
-123 -20 11 -164 144 -164 151 0 13 95 114 124 132 40 24 83 24 124 -1z"/>
<path d="M4820 2091 l-63 -58 34 -7 c69 -13 81 -15 100 -21 23 -8 23 -7 -1 46
-17 39 -17 46 -5 66 29 44 -4 31 -65 -26z"/>
<path d="M1889 2020 c-8 -11 -32 -37 -52 -59 -20 -22 -72 -79 -114 -128 -90
-102 -129 -145 -198 -221 -82 -89 -81 -81 -15 -139 l58 -52 23 28 c13 16 41
47 62 70 43 48 49 47 111 -17 37 -39 38 -42 32 -89 -7 -47 -11 -71 -20 -143
-4 -33 0 -39 57 -87 34 -28 63 -50 65 -49 1 2 5 25 8 52 3 27 7 60 9 74 2 14
6 48 10 76 l7 52 59 -3 c73 -4 119 13 173 63 80 76 101 184 53 277 -29 58 -58
90 -187 205 -131 117 -123 112 -141 90z m116 -241 c31 -29 63 -65 70 -80 42
-80 -15 -169 -107 -169 -38 0 -66 17 -138 83 l-51 47 73 84 c40 47 78 85 85
85 6 1 37 -22 68 -50z"/>
<path d="M4596 1618 c-64 -38 -67 -41 -62 -71 3 -18 8 -54 11 -82 3 -27 8 -63
10 -80 2 -16 11 -88 20 -160 9 -71 18 -141 20 -155 2 -14 9 -69 16 -123 6 -53
15 -100 19 -102 5 -3 36 12 70 32 68 42 65 30 45 158 l-6 40 129 78 c124 73
156 87 164 69 2 -4 26 -24 54 -44 l50 -37 67 40 c37 22 67 43 67 47 -1 4 -65
51 -143 105 -78 54 -181 126 -230 160 -48 34 -120 85 -161 114 l-73 51 -67
-40z m209 -229 c52 -39 95 -73 95 -74 0 -1 -39 -26 -86 -55 -91 -56 -103 -56
-105 0 0 14 -2 32 -4 40 -1 8 -5 33 -9 55 -3 22 -9 58 -12 79 -8 50 -3 48 121
-45z"/>
<path d="M2350 1528 c-24 -51 -73 -154 -108 -228 -35 -74 -81 -172 -102 -216
l-37 -81 36 -16 c20 -9 126 -59 236 -112 l200 -96 28 58 27 58 -151 73 c-83
39 -155 72 -159 72 -21 0 -18 23 13 88 l34 69 132 -63 c73 -35 138 -64 145
-64 12 0 62 97 55 105 -2 2 -66 33 -142 69 -121 57 -137 67 -129 83 5 10 19
39 31 66 12 26 23 47 25 47 2 0 57 -25 122 -56 66 -31 138 -64 160 -74 l42
-18 26 56 26 57 -88 42 c-48 22 -149 71 -225 107 -76 36 -141 66 -145 66 -5 0
-28 -42 -52 -92z"/>
<path d="M4148 1415 c-2 -1 -25 -5 -53 -8 -120 -12 -241 -100 -290 -209 -74
-165 0 -380 158 -458 168 -83 398 -23 486 126 l19 31 -55 32 c-64 36 -70 37
-78 11 -8 -26 -72 -74 -119 -90 -21 -7 -63 -10 -92 -8 -217 18 -262 341 -58
419 67 25 119 22 205 -15 11 -5 25 8 52 48 l36 55 -32 19 c-41 26 -166 58
-179 47z"/>
<path d="M2925 1368 c-14 -58 -110 -658 -105 -658 3 0 41 -7 85 -14 44 -8 98
-17 120 -20 22 -4 78 -13 125 -21 47 -8 103 -17 125 -21 22 -3 43 -8 48 -11 4
-2 7 -1 8 4 0 4 3 17 5 28 11 48 14 95 7 96 -4 1 -17 3 -28 5 -11 2 -36 6 -55
9 -93 16 -263 45 -267 45 -2 0 -2 8 1 18 3 9 8 37 12 62 10 71 11 75 20 74 5
-1 32 -5 59 -8 28 -4 57 -9 65 -11 8 -2 31 -6 50 -9 19 -2 56 -8 83 -11 36 -6
47 -4 48 6 3 25 7 54 12 82 4 17 1 27 -6 28 -7 0 -21 2 -32 5 -11 2 -40 6 -65
9 -25 4 -52 8 -60 10 -8 3 -33 7 -55 10 -82 11 -80 10 -78 46 1 19 4 52 8 75
l6 41 107 -19 c260 -44 245 -45 255 21 5 29 5 57 0 61 -4 4 -109 24 -233 45
-124 20 -233 39 -242 41 -12 4 -19 -2 -23 -18z"/>
</g>
</svg>
