<?xml version="1.0" encoding="utf-8"?>
<!-- Generator: Adobe Illustrator 23.0.2, SVG Export Plug-In . SVG Version: 6.00 Build 0)  -->
<svg version="1.1" id="Layer_1" xmlns="http://www.w3.org/2000/svg" xmlns:xlink="http://www.w3.org/1999/xlink" x="0px" y="0px"
	 viewBox="0 0 300 300" style="enable-background:new 0 0 300 300;" xml:space="preserve">
<style type="text/css">
	.st0{fill:#B9BEB3;}
	.st1{fill:#3A342E;}
</style>
<path id="blob" class="st0" d="M240.18,236.63c-71.29,33.9-135.13,33.9-191.53,0c-56.4-33.9-56.4-84.75,0-152.55
	s120.24-67.8,191.53,0S311.47,202.73,240.18,236.63z"/>
<g id="plier-svgrepo-com" transform="translate(-101.769 -0.001)">
	<g id="Group_220" transform="translate(117.11 0.001)">
		<g id="Group_219" transform="translate(0 0)">
			<path id="Path_7788" class="st1" d="M199.36,142.02c-7.29-13.44-16.54-25.72-27.45-36.43c4.17-10.6,3.62-22.47-1.52-32.63
				c3.37-4.63,5.82-9.88,7.2-15.44c6.25-26.53-1.36-47.3-20.88-57c-2.5-1.24-5.54-0.22-6.78,2.28c-0.15,0.31-0.28,0.64-0.36,0.97
				L137.5,50.7c-1.08-0.09-2.16-0.17-3.25-0.17c-1.09,0-2.18,0.08-3.25,0.17L118.92,3.81c-0.71-2.7-3.47-4.32-6.17-3.62
				c-0.34,0.09-0.66,0.21-0.97,0.37c-19.5,9.69-27.12,30.47-20.88,56.99c1.38,5.56,3.82,10.81,7.2,15.44
				c-5.13,10.16-5.69,22.03-1.52,32.63c-10.91,10.71-20.16,22.99-27.45,36.43c-23.26,43.79-20.7,96.8,6.67,138.15
				c3.19,4.66,6.35,8.63,9.06,11.98c2.93,3.62,7.26,5.82,11.91,6.07c0.28,0,0.56,0.02,0.85,0.02c9.07,0,16.42-7.36,16.42-16.43
				c0-3.23-0.95-6.38-2.73-9.07c-18.11-27.49-22.79-41.99-22.79-70.54c0-24.96,21.31-57.4,32.71-72.95c8.44,2.92,17.61,2.92,26.05,0
				c11.38,15.56,32.71,47.99,32.71,72.95c0,28.55-4.69,43.05-22.79,70.54c-5.01,7.56-2.95,17.75,4.61,22.76
				c2.69,1.78,5.85,2.74,9.08,2.74c0.28,0,0.56,0,0.85-0.02c4.65-0.25,8.98-2.45,11.91-6.07c2.71-3.35,5.88-7.31,9.06-11.98
				C220.06,238.84,222.62,185.82,199.36,142.02z M78.4,202.19c0,30.59,5.28,46.95,24.46,76.09c1.65,2.51,1.33,5.83-0.78,7.98
				c-1.24,1.3-3,1.98-4.79,1.84c-1.79-0.08-3.46-0.94-4.58-2.34c-2.59-3.19-5.6-6.96-8.56-11.31
				c-25.27-38.24-27.61-87.23-6.09-127.7c6.35-11.67,14.28-22.4,23.57-31.9c0.05,0.07,0.12,0.12,0.17,0.19
				c1.36,1.84,2.87,3.55,4.51,5.13c0.06,0.06,0.13,0.12,0.19,0.17c1.7,1.62,3.53,3.09,5.49,4.38
				C98.08,143.91,78.4,175.73,78.4,202.19z M111.93,57.3c-1.35,0.9-2.65,1.89-3.89,2.95c-0.15,0.13-0.29,0.27-0.43,0.41
				c-1.07,0.94-2.09,1.94-3.05,2.99c-0.1,0.11-0.21,0.2-0.3,0.3c-1.59-2.72-2.77-5.66-3.51-8.72c-4.47-19.04-0.89-33.77,10.1-42.26
				l10.23,39.79c-0.27,0.09-0.53,0.23-0.81,0.33c-1.08,0.4-2.15,0.85-3.21,1.35c-0.39,0.18-0.77,0.36-1.15,0.55
				c-1.3,0.66-2.57,1.39-3.79,2.19C112.05,57.24,111.99,57.26,111.93,57.3z M134.24,111.21c-11.17-0.01-20.21-9.07-20.2-20.23
				c0.01-11.17,9.07-20.21,20.23-20.2c11.16,0.01,20.2,9.06,20.2,20.22C154.47,102.16,145.41,111.21,134.24,111.21z M152.58,55
				c-0.38-0.19-0.76-0.37-1.14-0.55c-1.05-0.5-2.12-0.95-3.21-1.35c-0.27-0.1-0.52-0.24-0.81-0.33l10.24-39.79
				c10.99,8.47,14.58,23.21,10.1,42.26c-0.74,3.06-1.92,6-3.5,8.72c-0.1-0.11-0.21-0.2-0.31-0.3c-0.96-1.05-1.98-2.05-3.05-2.99
				c-0.15-0.13-0.28-0.27-0.43-0.41c-1.24-1.06-2.53-2.05-3.89-2.95c-0.06-0.04-0.13-0.07-0.19-0.11
				C155.15,56.39,153.88,55.66,152.58,55z M184.33,274.46c-2.96,4.34-5.97,8.13-8.56,11.31c-1.12,1.4-2.79,2.26-4.58,2.34
				c-1.79,0.14-3.55-0.54-4.79-1.84c-2.11-2.14-2.44-5.47-0.78-7.98c19.2-29.15,24.46-45.51,24.46-76.09
				c0-26.46-19.68-58.28-33.59-77.47c1.95-1.3,3.79-2.77,5.49-4.38c0.06-0.06,0.13-0.11,0.19-0.17c1.64-1.58,3.15-3.3,4.5-5.13
				c0.05-0.07,0.12-0.12,0.17-0.19c9.28,9.5,17.21,20.24,23.57,31.9C211.93,187.22,209.6,236.22,184.33,274.46L184.33,274.46z"/>
			<path id="Path_7789" class="st1" d="M134.24,80.89c-5.58,0-10.11,4.53-10.11,10.11c0,5.58,4.53,10.11,10.11,10.11
				c5.58,0,10.11-4.53,10.11-10.11C144.34,85.41,139.82,80.89,134.24,80.89z"/>
		</g>
	</g>
</g>
</svg>
