<?xml version="1.0" encoding="utf-8"?>
<!-- Generator: Adobe Illustrator 23.0.2, SVG Export Plug-In . SVG Version: 6.00 Build 0)  -->
<svg version="1.1" id="Layer_1" xmlns="http://www.w3.org/2000/svg" xmlns:xlink="http://www.w3.org/1999/xlink" x="0px" y="0px"
	 viewBox="0 0 300 300" style="enable-background:new 0 0 300 300;" xml:space="preserve">
<style type="text/css">
	.st0{fill:#B9BEB3;}
	.st1{fill:#3A342E;}
</style>
<path id="blob" class="st0" d="M249.63,223.44c-58.15,73.7-122.14,73.7-191.98,0s-69.84-129.14,0-166.33
	c69.84-37.19,133.83-37.19,191.98,0C307.78,94.3,307.78,149.74,249.63,223.44z"/>
<path id="Path_7824" class="st1" d="M246.06,156.52c4.64-2.64,9.03-5.71,13.11-9.15c32.14-27.22,25.95-61.95,25.66-63.41
	c-0.42-2.18-2.18-3.85-4.38-4.15c-18.83-1.84-37.81,1.47-54.9,9.58c-1.25-17.1-7.24-33.52-17.31-47.4
	c-4.96-7.06-10.93-13.34-17.73-18.65c-1.8-1.3-4.24-1.3-6.04,0c-6.8,5.31-12.77,11.59-17.73,18.65
	c-7.72,10.68-13.08,22.87-15.74,35.78c-1.87-3.41-3.95-6.7-6.23-9.86c-4.96-7.06-10.93-13.34-17.73-18.65c-1.8-1.3-4.24-1.3-6.04,0
	c-6.8,5.31-12.77,11.59-17.73,18.65c-10.13,13.96-16.14,30.49-17.34,47.7c-17.06-8.23-36.04-11.65-54.91-9.89
	c-2.22,0.29-4,1.98-4.4,4.19c-0.27,1.46-6.23,35.98,25.9,63.18c4.09,3.46,8.49,6.54,13.15,9.2c-12.23,8.41-21.04,20.92-24.84,35.27
	c-0.48,2.2,0.52,4.45,2.47,5.57c16.56,8.57,36.1,9.21,53.19,1.73c7.78-3.1,15.27-6.89,22.38-11.31v33.37
	c0.07,2.85,2.45,5.11,5.3,5.03c2.75-0.07,4.96-2.28,5.03-5.03v-33.37c7.11,4.42,14.6,8.21,22.38,11.31
	c7.72,3.45,16.08,5.23,24.53,5.23c9.98,0.03,19.81-2.36,28.66-6.97c1.95-1.12,2.94-3.37,2.47-5.57
	c-3.78-14.25-12.51-26.7-24.63-35.1c0.95-0.54,1.89-1.1,2.82-1.68c5.38,7.41,15.1,11.72,29.63,18.16
	c7.72,3.45,16.08,5.23,24.53,5.23c9.97,0.04,19.81-2.35,28.66-6.95c1.95-1.12,2.94-3.37,2.47-5.57
	C266.92,177.37,258.18,164.93,246.06,156.52z M189.04,165.4c-5.85,4.93-12.4,8.97-19.43,11.99c-2.62,1.14-3.82,4.18-2.69,6.8
	c0.5,1.16,1.41,2.1,2.56,2.63c12.32,5.8,21.84,16.25,26.47,29.06c-12.9,5.3-27.41,5.12-40.18-0.49
	c-16.71-7.41-23.73-10.95-26.57-16.65v-13.61l43.24-28.98c2.4-1.55,3.08-4.75,1.53-7.15c-1.55-2.4-4.75-3.08-7.15-1.53
	c-0.05,0.03-0.09,0.06-0.14,0.09l-37.49,25.13V117.3c0.07-2.85-2.18-5.23-5.03-5.3c-2.85-0.07-5.23,2.18-5.3,5.03
	c0,0.09,0,0.18,0,0.27v55.48l-37.62-25.21c-2.3-1.69-5.54-1.2-7.23,1.11c-1.69,2.3-1.2,5.54,1.11,7.23
	c0.12,0.09,0.25,0.17,0.38,0.25l43.37,29.06v13.52c-2.84,5.7-9.86,9.24-26.57,16.65c-12.77,5.61-27.28,5.78-40.18,0.48
	c4.66-12.9,14.28-23.4,26.72-29.17c2.59-1.19,3.73-4.26,2.54-6.85c-0.53-1.16-1.47-2.08-2.64-2.58
	c-7.06-3.05-13.64-7.12-19.52-12.07c-11.03-8.97-18.66-21.45-21.6-35.36c-0.97-4.65-1.37-9.4-1.18-14.14
	c18.16-0.76,36.14,3.77,51.78,13.03c2.42,1.51,5.61,0.77,7.12-1.66c0.54-0.86,0.81-1.87,0.78-2.89c-0.03-0.98-0.04-1.78-0.04-2.54
	c-0.04-17.02,5.34-33.6,15.36-47.35c3.66-5.15,7.89-9.88,12.59-14.1c4.7,4.22,8.93,8.96,12.59,14.11
	c10.02,13.75,15.4,30.34,15.36,47.35c0,0.73,0,1.46-0.03,2.18c-0.07,2.85,2.18,5.23,5.03,5.3c1,0.03,1.99-0.24,2.85-0.77
	c15.67-9.14,33.66-13.54,51.78-12.68C212.36,134.88,203.99,153.32,189.04,165.4z"/>
</svg>
