<?xml version="1.0" encoding="utf-8"?>
<!-- Generator: Adobe Illustrator 23.0.2, SVG Export Plug-In . SVG Version: 6.00 Build 0)  -->
<svg version="1.1" id="Layer_1" xmlns="http://www.w3.org/2000/svg" xmlns:xlink="http://www.w3.org/1999/xlink" x="0px" y="0px"
	 viewBox="0 0 300 300" style="enable-background:new 0 0 300 300;" xml:space="preserve">
<style type="text/css">
	.st0{fill:#B9BEB3;}
	.st1{fill:#3A342E;}
</style>
<path id="blob" class="st0" d="M237.5,233.95c-67.78,70.74-127.04,70.74-177.78,0s-50.74-131.85,0-183.33
	c50.74-51.48,110-51.48,177.78,0C305.28,102.09,305.28,163.21,237.5,233.95z"/>
<g>
	<g>
		<g>
			<g>
				<path class="st1" d="M25,175.05c0,2.77,2.24,5,5,5h65c2.77,0,5-2.24,5-5c0-2.77-2.24-5-5-5H30C27.23,170.05,25,172.28,25,175.05
					z"/>
				<path class="st1" d="M292.04,156.58L238,116.05c-0.39-0.29-0.83-0.52-1.27-0.69c-5.57-11.97-17.68-20.32-31.72-20.32h-30v-15
					c0-11.03-8.97-20-20-20s-20,8.97-20,20v15c-17.06,0-25,26.85-25,45v5H30c-16.55,0-30,13.46-30,30s13.46,30,30,30h80.92
					c2.07,5.81,7.57,10,14.08,10h25v-65c0-2.77,2.24-5,5-5h20v-5h-5c-2.77,0-5-2.24-5-5c0-2.77,2.24-5,5-5h20c2.77,0,5,2.24,5,5
					c0,2.77-2.24,5-5,5h-5v5h20c1.67,0,3.23,0.84,4.16,2.22l10,15c0.55,0.82,0.84,1.79,0.84,2.77v15c0,0.53-0.09,1.07-0.26,1.58
					l-4.18,33.42h4.38c7.38,0,13.76-4.05,17.25-10h47.75c8.3,0,15.05-6.76,15.05-15.05v-17.5
					C300,166.26,297.03,160.32,292.04,156.58z M110,195.05H30c-11.03,0-20-8.97-20-20s8.97-20,20-20h80V195.05z M165,95.05h-20v-15
					c0-5.52,4.49-10,10-10c5.52,0,10,4.49,10,10L165,95.05L165,95.05z M240,175.05v-20l26.66,20H240z"/>
				<path class="st1" d="M160,155.05v60h45.94l4.07-35.81v-12.67l-7.68-11.51L160,155.05L160,155.05z M190,195.05h-15
					c-2.77,0-5-2.24-5-5c0-2.77,2.24-5,5-5h15c2.77,0,5,2.24,5,5C195,192.81,192.76,195.05,190,195.05z M190,175.05h-15
					c-2.77,0-5-2.24-5-5c0-2.77,2.24-5,5-5h15c2.77,0,5,2.24,5,5C195,172.81,192.76,175.05,190,175.05z"/>
			</g>
		</g>
	</g>
	<g>
	</g>
	<g>
	</g>
	<g>
	</g>
	<g>
	</g>
	<g>
	</g>
	<g>
	</g>
	<g>
	</g>
	<g>
	</g>
	<g>
	</g>
	<g>
	</g>
	<g>
	</g>
	<g>
	</g>
	<g>
	</g>
	<g>
	</g>
	<g>
	</g>
</g>
</svg>
