<svg id="Layer_1" data-name="Layer 1" xmlns="http://www.w3.org/2000/svg" viewBox="0 0 300 275"><defs><style>.cls-1{fill:#b9beb3;}.cls-2{fill:#3a342e;}</style></defs><title>icon_chainsaw</title><path id="blob" class="cls-1" d="M237.5,234Q135.83,340.06,59.72,234t0-183.34q76.11-77.22,177.78,0T237.5,234Z" transform="translate(0 -12)"/><path class="cls-2" d="M25,175.05a5,5,0,0,0,5,5H95a5,5,0,0,0,0-10H30A5,5,0,0,0,25,175.05Z" transform="translate(0 -12)"/><path class="cls-2" d="M292,156.58l-54-40.53a4.9,4.9,0,0,0-1.27-.69A35,35,0,0,0,205,95.05H175v-15a20,20,0,0,0-40,0v15c-17.06,0-25,26.85-25,45v5H30a30,30,0,0,0,0,60h80.92a15,15,0,0,0,14.08,10h25v-65a5,5,0,0,1,5-5h20v-5h-5a5,5,0,0,1,0-10h20a5,5,0,0,1,0,10h-5v5h20a5,5,0,0,1,4.16,2.22l10,15a5,5,0,0,1,.84,2.78v15a5,5,0,0,1-.26,1.58l-4.17,33.42H220a20,20,0,0,0,17.25-10H285A15.07,15.07,0,0,0,300,190V172.49A20,20,0,0,0,292,156.58ZM110,195.05H30a20,20,0,0,1,0-40h80Zm55-100H145v-15a10,10,0,0,1,20,0v15Zm75,80v-20l26.67,20Z" transform="translate(0 -12)"/><path class="cls-2" d="M160,155.05v60h45.94L210,179.24V166.56l-7.67-11.51Zm30,40H175a5,5,0,0,1,0-10h15a5,5,0,0,1,0,10Zm0-20H175a5,5,0,0,1,0-10h15a5,5,0,0,1,0,10Z" transform="translate(0 -12)"/></svg>