<?xml version="1.0" encoding="utf-8"?>
<!-- Generator: Adobe Illustrator 23.0.2, SVG Export Plug-In . SVG Version: 6.00 Build 0)  -->
<svg version="1.1" xmlns="http://www.w3.org/2000/svg" xmlns:xlink="http://www.w3.org/1999/xlink" x="0px" y="0px"
	 viewBox="0 0 504.8 18.5" style="enable-background:new 0 0 504.8 18.5;" xml:space="preserve">
<g id="Layer_2">
</g>
<g id="Layer_1">
	<title>ragged-edge</title>
	<g>
		<path d="M499.5,11.5c-2.3-0.1-4.6,0-6.7-0.5c-2.3-0.6-4.6-0.8-6.9-0.8c-1.3-0.1-2.7-0.1-4.1,0c-2.6,0.4-5.2,0.2-7.8-0.4
			c-0.3-0.1-0.5-0.1-0.8,0c-1.7,1.1-3.5,0.2-5.2,0.4s-3.4,0.3-5.1,0.3c-0.8,0-1.5-0.2-2.3-0.4c-1.7-0.5-3.4-0.6-5.1-0.3
			c-0.9,0.1-1.7,0.1-2.6,0c-2.4-0.4-4.8-0.5-7.1-0.1c-0.7,0.1-1.3,0.1-2,0.1c-6,0-11.9,0.5-17.8,1.5c-1.5,0.2-3,0.2-4.5,0.4
			c-4,0.5-7.9,0.6-11.9,0.5c-2.9-0.1-5.7,0.1-8.5,0.1c-1.5,0.1-3,0.1-4.5,0c-2.7-0.3-5.3,0.4-7.9,0.6c-1.2,0.2-2.4,0.5-3.6,0.9
			c-1.1,0.4-2.3,0.2-3.3-0.5c-0.4-0.2-0.9-0.3-1.3-0.3c-2,0-4,0.1-6,0c-4.1-0.2-8.2-0.6-12.3-0.8c-0.9-0.1-1.9,0.1-2.9,0
			c-3.1-0.1-6.3-0.5-9.5-0.6c-1.6,0-3.3-0.4-4.8-1c-1.1-0.5-2.6-0.2-4-0.2c-0.8,0-1.7-0.3-2.3,0.7c-0.1,0.2-0.9,0.1-1.3,0
			c-1.2-0.3-2.5-0.2-3.7,0.2c-1.5,0.4-3,1.2-4.5,0.1c-0.1-0.1-0.5-0.1-0.5,0c-0.3,1-1.2,0.4-1.7,0.4c-1.6,0-3.3-0.2-4.9-0.3
			c-2.7-0.2-5.4-0.2-8.1-0.4c-0.8-0.1-1.7-0.3-2.5-0.5c-1.2-0.3-2.5-0.3-3.7,0.1c-1.6,0.5-3.3,0.4-4.8-0.3l1.3-0.5
			c-0.4-0.8-1.1-0.6-1.6-0.6c-3.1-0.1-6.3,0-9.5-0.1c-2.6,0-5.3-0.3-7.9-0.5c-2-0.1-3.9-0.3-5.8-0.2c-1.3,0-2.6-0.3-3.7-1
			c-1.9-0.8-4-1.2-6-0.9c-4.2,0.3-8.4,0.4-12.5,0.7c-4,0.2-7.9,0.6-11.9,1c-2.6,0.3-5.3,0.6-7.9,0.8c-3.6,0.3-7.1,0.6-10.7,0.8
			c-5.9,0.4-11.7,0.6-17.5,0.9c-4.2,0.3-8.4,0.6-12.6,0.8c-4.4,0.3-8.7,0.5-13.1,0.8c-6.5,0.5-13.1,1-19.6,1.6
			c-6.9,0.7-13.7,1.5-20.6,2.2c-3.7,0.4-7.4,0.6-11.1,0.9c-5.3,0.4-10.6,0.8-15.9,1.1c-3.2,0.2-6.4,0.3-9.6,0.3h398.3v-6.3l-4-0.5
			C500.5,11.7,500,11.5,499.5,11.5z"/>
		<path d="M66.1,16.8c-4.3-0.3-8.5-0.5-12.7-0.9c-6.4-0.6-12.8-1.3-19.2-1.8c-3.1-0.3-6.3-0.4-9.5-0.6c-5-0.2-9.9-0.6-14.9-0.7
			c-3.3,0-6.5,0.1-9.8,0.2v5.5h106.8c-6.4-0.1-12.9-0.2-19.3-0.5C80.4,17.7,73.2,17.2,66.1,16.8z"/>
	</g>
</g>
</svg>
