<svg id="Layer_1" data-name="Layer 1" xmlns="http://www.w3.org/2000/svg" viewBox="0 0 1301.99 34.92"><defs><style>.cls-1{fill:#eeefeb;}</style></defs><title>ragged-edge-bottom</title><path class="cls-1" d="M0,0V18.66c8.42.37,16.85.63,25.27.44,12.81-.28,25.6-1.16,38.4-1.83,8.19-.43,16.39-.73,24.55-1.45,16.5-1.47,32.92-3.29,49.4-4.75,10.85-1,21.76-1.64,32.66-2.3,18.4-1.11,36.8-2.31,55.21-3.1,16.61-.7,33.22-1,49.83-1.25,8.21-.11,16.44.21,24.63.7C313.59,5.93,327.21,7,340.83,8c9.55.71,19.1,1.38,28.6,2.33,17.68,1.77,35.33,3.91,53,5.56,16.84,1.57,33.72,2.82,50.6,4,11.24.82,22.51,1.3,33.77,2,10.85.64,21.7,1.38,32.55,1.95,15,.78,30,1.35,45.07,2.2,9.18.52,18.35,1.33,27.52,2.12,6.81.58,13.6,1.39,20.4,2,10.19.95,20.4,2,30.59,2.71,10.7.76,21.43,1.08,32.12,1.86,5.4.4,10.77,0,15.44-2.38,3.2-1.65,6-2.73,9.67-2.6,4.94.16,9.9-.3,14.85-.61,6.79-.43,13.58-1.14,20.37-1.36,8.18-.26,16.37-.11,24.56-.19,1.37,0,3,.53,4.12-1.52l-3.26-1.3c4.88-1.88,7.6-2,12.41-.82,3.15.76,6.3,1.3,9.55.39a31.27,31.27,0,0,1,6.51-1.14c7-.44,14-.63,21-1,4.22-.23,8.43-.75,12.65-.82,1.4,0,3.47-1.56,4.37,1.08a1.4,1.4,0,0,0,1.23.13c3.91-2.93,7.78-.72,11.48.34a18.77,18.77,0,0,0,9.55.65c1.1-.25,3.08-.52,3.33-.06,1.44,2.67,3.8,1.71,5.83,1.73,3.51.06,7.45.87,10.44-.43a33.69,33.69,0,0,1,12.38-2.58c8.19-.4,16.37-1.16,24.56-1.66,2.51-.15,5.06.2,7.57.05,10.56-.63,21.1-1.46,31.66-2,5.11-.26,10.25,0,15.37-.12a6.08,6.08,0,0,0,3.3-.8,9.29,9.29,0,0,1,8.56-1.27c3.09.88,6.24,2,9.42,2.23,6.78.51,13.46,2.27,20.4,1.45a90.27,90.27,0,0,1,11.63-.08c7.27.12,14.55.56,21.81.39a203.5,203.5,0,0,1,30.63,1.26c3.88.5,7.84.44,11.68,1.08A269.77,269.77,0,0,0,1144,26.72a24.16,24.16,0,0,1,5.1.3c6.13,1.3,12.19.56,18.29-.16a23,23,0,0,1,6.62.12,29.29,29.29,0,0,0,13.16-.75,21.16,21.16,0,0,1,6-1,125.1,125.1,0,0,1,13.26.89c4.47.57,9.15-1.9,13.49.94a3,3,0,0,0,2,0,50.83,50.83,0,0,1,20.18-.91c3.47.49,7.1-.06,10.66,0a68.18,68.18,0,0,0,17.66-2c5.51-1.36,11.46-.93,17.2-1.34,1.36-.1,2.69-.43,4-.62q5.12-.67,10.25-1.3V0Z"/></svg>