<svg xmlns="http://www.w3.org/2000/svg" viewBox="0 0 505.1 12" fill="#eceee8"><title>ragged-edge-top</title><g id="Layer_1" data-name="Layer 1"><path d="M499.5,11.5a36.43,36.43,0,0,1-6.7-.5,27.1,27.1,0,0,0-6.9-.8,28,28,0,0,0-4.1,0,20.55,20.55,0,0,1-7.8-.4,1.1,1.1,0,0,0-.8,0c-1.7,1.1-3.5.2-5.2.4a43.61,43.61,0,0,1-5.1.3,9.26,9.26,0,0,1-2.3-.4,11,11,0,0,0-5.1-.3,11.3,11.3,0,0,1-2.6,0,21.19,21.19,0,0,0-7.1-.1,13.4,13.4,0,0,1-2,.1A106,106,0,0,0,426,11.3c-1.5.2-3,.2-4.5.4a79,79,0,0,1-11.9.5c-2.9-.1-5.7.1-8.5.1a33.79,33.79,0,0,1-4.5,0c-2.7-.3-5.3.4-7.9.6a23.69,23.69,0,0,0-3.6.9,3.57,3.57,0,0,1-3.3-.5,3.08,3.08,0,0,0-1.3-.3c-2,0-4,.1-6,0-4.1-.2-8.2-.6-12.3-.8-.9-.1-1.9.1-2.9,0-3.1-.1-6.3-.5-9.5-.6a13.3,13.3,0,0,1-4.8-1c-1.1-.5-2.6-.2-4-.2-.8,0-1.7-.3-2.3.7-.1.2-.9.1-1.3,0a6.68,6.68,0,0,0-3.7.2c-1.5.4-3,1.2-4.5.1-.1-.1-.5-.1-.5,0-.3,1-1.2.4-1.7.4-1.6,0-3.3-.2-4.9-.3-2.7-.2-5.4-.2-8.1-.4a22.11,22.11,0,0,1-2.5-.5,6.66,6.66,0,0,0-3.7.1,6.63,6.63,0,0,1-4.8-.3l1.3-.5c-.4-.8-1.1-.6-1.6-.6-3.1-.1-6.3,0-9.5-.1-2.6,0-5.3-.3-7.9-.5a57.18,57.18,0,0,0-5.8-.2,6.86,6.86,0,0,1-3.7-1,11.33,11.33,0,0,0-6-.9c-4.2.3-8.4.4-12.5.7s-7.9.6-11.9,1c-2.6.3-5.3.6-7.9.8-3.6.3-7.1.6-10.7.8-5.9.4-11.7.6-17.5.9-4.2.3-8.4.6-12.6.8-4.4.3-8.7.5-13.1.8-6.5.5-13.1,1-19.6,1.6-6.9.7-13.7,1.5-20.6,2.2-3.7.4-7.4.6-11.1.9-5.3.4-10.6.8-15.9,1.1q-4.8.3-9.6.3H505.1V12.2l-4-.5C500.5,11.7,500,11.5,499.5,11.5Z" transform="translate(0 -6.5)"/><path d="M66.1,16.8c-4.3-.3-8.5-.5-12.7-.9-6.4-.6-12.8-1.3-19.2-1.8-3.1-.3-6.3-.4-9.5-.6-5-.2-9.9-.6-14.9-.7-3.3,0-6.5.1-9.8.2v5.5H106.8c-6.4-.1-12.9-.2-19.3-.5C80.4,17.7,73.2,17.2,66.1,16.8Z" transform="translate(0 -6.5)"/></g></svg>