<?xml version="1.0" encoding="utf-8"?>
<!-- Generator: Adobe Illustrator 23.0.2, SVG Export Plug-In . SVG Version: 6.00 Build 0)  -->
<svg version="1.1" id="Layer_1" xmlns="http://www.w3.org/2000/svg" xmlns:xlink="http://www.w3.org/1999/xlink" x="0px" y="0px"
	 viewBox="0 0 504.8 18.5" style="enable-background:new 0 0 504.8 18.5;" xml:space="preserve">
<style type="text/css">
	.st0{fill:#black;}
</style>
<title>ragged-edge</title>
<path class="st0" d="M0,0v13c3.3-0.1,6.5-0.2,9.8-0.2c5,0.1,9.9,0.5,14.9,0.7c3.2,0.2,6.4,0.3,9.5,0.6c6.4,0.5,12.8,1.2,19.2,1.8
	c4.2,0.4,8.4,0.6,12.7,0.9c7.1,0.4,14.3,0.9,21.4,1.2c6.4,0.3,12.9,0.4,19.3,0.5c3.2,0,6.4-0.1,9.6-0.3c5.3-0.3,10.6-0.7,15.9-1.1
	c3.7-0.3,7.4-0.5,11.1-0.9c6.9-0.7,13.7-1.5,20.6-2.2c6.5-0.6,13.1-1.1,19.6-1.6c4.4-0.3,8.7-0.5,13.1-0.8c4.2-0.2,8.4-0.5,12.6-0.8
	c5.8-0.3,11.6-0.5,17.5-0.9c3.6-0.2,7.1-0.5,10.7-0.8c2.6-0.2,5.3-0.5,7.9-0.8c4-0.4,7.9-0.8,11.9-1c4.1-0.3,8.3-0.4,12.5-0.7
	c2-0.3,4.1,0.1,6,0.9c1.1,0.7,2.4,1,3.7,1c1.9-0.1,3.8,0.1,5.8,0.2c2.6,0.2,5.3,0.5,7.9,0.5c3.2,0.1,6.4,0,9.5,0.1
	c0.5,0,1.2-0.2,1.6,0.6l-1.3,0.5c1.5,0.7,3.2,0.8,4.8,0.3c1.2-0.4,2.5-0.4,3.7-0.1c0.8,0.2,1.7,0.4,2.5,0.5c2.7,0.2,5.4,0.2,8.1,0.4
	c1.6,0.1,3.3,0.3,4.9,0.3c0.5,0,1.4,0.6,1.7-0.4c0-0.1,0.4-0.1,0.5,0c1.5,1.1,3,0.3,4.5-0.1c1.2-0.4,2.5-0.5,3.7-0.2
	c0.4,0.1,1.2,0.2,1.3,0c0.6-1,1.5-0.7,2.3-0.7c1.4,0,2.9-0.3,4,0.2c1.5,0.6,3.2,1,4.8,1c3.2,0.1,6.4,0.5,9.5,0.6c1,0.1,2-0.1,2.9,0
	c4.1,0.2,8.2,0.6,12.3,0.8c2,0.1,4,0,6,0c0.4,0,0.9,0.1,1.3,0.3c1,0.7,2.2,0.9,3.3,0.5c1.2-0.4,2.4-0.7,3.6-0.9
	c2.6-0.2,5.2-0.9,7.9-0.6c1.5,0.1,3,0.1,4.5,0c2.8,0,5.6-0.2,8.5-0.1c4,0.1,7.9,0,11.9-0.5c1.5-0.2,3-0.2,4.5-0.4
	c5.9-1,11.8-1.5,17.8-1.5c0.7,0,1.3,0,2-0.1c2.3-0.4,4.7-0.3,7.1,0.1c0.9,0.1,1.7,0.1,2.6,0c1.7-0.3,3.4-0.2,5.1,0.3
	c0.8,0.2,1.5,0.4,2.3,0.4c1.7,0,3.4-0.1,5.1-0.3c1.7-0.2,3.5,0.7,5.2-0.4c0.3-0.1,0.5-0.1,0.8,0c2.6,0.6,5.2,0.8,7.8,0.4
	c1.4-0.1,2.8-0.1,4.1,0c2.3,0,4.6,0.2,6.9,0.8c2.1,0.5,4.4,0.4,6.7,0.5c0.5,0,1,0.2,1.6,0.2l4,0.5V0H0z"/>
</svg>
