<svg xmlns="http://www.w3.org/2000/svg" width="30" height="28.704" viewBox="0 0 30 28.704"><defs><style>.a{fill:#af8735;}</style></defs><path class="a" d="M5.909,20.851h4.757c.237,0,.229,0,.3-.239.058-.208.137-.409.206-.614.1-.3.2-.6.3-.9q.25-.761.5-1.524c.11-.343.214-.688.325-1.03.142-.436.29-.87.43-1.306.1-.3.181-.6.277-.9.109-.341.227-.679.337-1.019.162-.5.328-1,.478-1.506a1.292,1.292,0,0,1,.75-.931,1.181,1.181,0,0,1,1.5.566,6.375,6.375,0,0,1,.259.709c.143.437.28.876.419,1.315.158.5.311,1,.475,1.5.141.428.3.851.438,1.28.175.545.334,1.1.507,1.641.115.361.248.716.365,1.077.134.414.259.832.39,1.247.051.163.112.323.158.488.036.129.119.153.238.152.709,0,1.418,0,2.128,0l5.121-.009c.745,0,1.489,0,2.234,0a1.134,1.134,0,0,1,.975.453,1.118,1.118,0,0,1,.195.971,1.752,1.752,0,0,1-.8,1.006q-.767.557-1.536,1.111L25.789,25.7l-1.574,1.133-2.222,1.6c-.016.011-.03.027-.046.04-.294.237-.288.262-.15.621.131.343.232.7.347,1.045.163.495.329.989.49,1.486s.313.991.473,1.486c.188.581.382,1.161.573,1.742.122.372.242.745.367,1.117.143.429.3.853.433,1.286a5.481,5.481,0,0,1,.253,1.024,1.158,1.158,0,0,1-.8,1.107,1.275,1.275,0,0,1-1.241-.276c-.584-.432-1.172-.859-1.759-1.286q-.772-.562-1.547-1.121-.675-.49-1.349-.981c-.636-.465-1.27-.933-1.906-1.4-.328-.239-.662-.472-.989-.713a.186.186,0,0,0-.256,0q-.9.664-1.8,1.322c-.486.354-.977.7-1.465,1.053q-.837.6-1.671,1.214c-.677.493-1.352.989-2.032,1.48-.32.232-.641.466-.977.672a.921.921,0,0,1-.5.151,1.049,1.049,0,0,1-.817-.394,1.343,1.343,0,0,1-.248-1.244c.158-.541.338-1.075.507-1.612.131-.415.254-.831.39-1.244.182-.557.377-1.11.559-1.667.114-.349.21-.7.322-1.053.091-.281.2-.557.289-.838.1-.3.185-.6.285-.9.138-.416.285-.829.424-1.244a4.794,4.794,0,0,0,.161-.547c.01-.05-.051-.136-.1-.175-.4-.3-.8-.583-1.207-.873-.655-.473-1.309-.949-1.965-1.42-.57-.41-1.145-.812-1.714-1.223s-1.124-.826-1.688-1.236q-.548-.4-1.1-.79a1.195,1.195,0,0,1,.624-2.195c1.58-.007,3.161,0,4.742,0C5.909,20.844,5.909,20.848,5.909,20.851Z" transform="translate(0.003 -10.797)"/></svg>